<svg width="205" height="31" viewBox="0 0 205 31" fill="none" xmlns="http://www.w3.org/2000/svg">
<path d="M0.44 16C0.44 24.12 5.64 30.68 14.08 30.68C17.24 30.68 20.24 29.64 22.2 27.08L22.48 30H28.04V14.28H16.36V20.4H20.24C19.8 22.52 17.72 23.56 15.68 23.56C10.36 23.56 9.24 18.88 9.24 16.2C9.24 13.28 9.4 7.88 15.08 7.88C17.16 7.88 18.92 9.36 19.24 11.44H27.68C26.4 4.68 21.84 0.76 14.52 0.76C8.12 0.76 0.44 5.12 0.44 16ZM30.5728 15.72C30.5728 24.44 36.3728 30.68 45.0528 30.68C53.7328 30.68 59.5328 24.44 59.5328 15.72C59.5328 7 53.7328 0.76 45.0528 0.76C36.3728 0.76 30.5728 7 30.5728 15.72ZM39.3728 15.72C39.3728 9.36 42.8128 7.88 45.0528 7.88C47.2928 7.88 50.7328 9.36 50.7328 15.72C50.7328 22.08 47.2928 23.56 45.0528 23.56C42.8128 23.56 39.3728 22.08 39.3728 15.72ZM62.2488 30H83.6888V22.68H71.0488V1.44H62.2488V30ZM86.4441 30H99.1641C109.124 30 113.764 24.48 113.764 15.68C113.764 8.48 110.364 1.44 100.884 1.44H86.4441V30ZM95.2441 22.68V8.76H98.0441C104.444 8.76 104.964 13.76 104.964 15.56C104.964 18.24 104.124 22.68 98.6841 22.68H95.2441Z" fill="#191A1F"/>
<path d="M115.737 16C115.737 24.12 120.937 30.68 129.377 30.68C132.537 30.68 135.537 29.64 137.497 27.08L137.777 30H143.337V14.28H131.657V20.4H135.537C135.097 22.52 133.017 23.56 130.977 23.56C125.657 23.56 124.537 18.88 124.537 16.2C124.537 13.28 124.697 7.88 130.377 7.88C132.457 7.88 134.217 9.36 134.537 11.44H142.977C141.697 4.68 137.137 0.76 129.817 0.76C123.417 0.76 115.737 5.12 115.737 16ZM151.824 30H160.624V19.48L170.864 1.44H161.224L156.264 11.96L151.504 1.44H141.784L151.824 19.48V30ZM170.904 30H179.224V11.68H179.304L184.264 30H190.824L195.784 11.68H195.864V30H204.184V1.44H191.664L187.584 18.24H187.504L183.424 1.44H170.904V30Z" fill="white"/>
</svg>
