<svg width="62" height="62" viewBox="0 0 62 62" fill="none" xmlns="http://www.w3.org/2000/svg">
<path d="M31 60.967C47.5502 60.967 60.9667 47.5505 60.9667 31.0004C60.9667 14.4502 47.5502 1.03369 31 1.03369C14.4499 1.03369 1.03336 14.4502 1.03336 31.0004C1.03336 47.5505 14.4499 60.967 31 60.967Z" stroke="white"/>
<path d="M37.8711 14.4732L33.5829 14.4663C28.7655 14.4663 25.6523 17.6604 25.6523 22.604V26.356H21.3408C20.9684 26.356 20.6667 26.6582 20.6667 27.0306V32.467C20.6667 32.8396 20.9686 33.1413 21.3408 33.1413H25.6523V46.8588C25.6523 47.2312 25.954 47.533 26.3267 47.533H31.9517C32.3243 47.533 32.6261 47.231 32.6261 46.8588V33.1413H37.6671C38.0395 33.1413 38.3412 32.8396 38.3412 32.467L38.3433 27.0306C38.3433 26.8518 38.2722 26.6805 38.1459 26.5538C38.0197 26.4273 37.8475 26.356 37.6687 26.356H32.6261V23.1754C32.6261 21.6467 32.9902 20.8707 34.9817 20.8707L37.8702 20.8697C38.2424 20.8697 38.5442 20.5676 38.5442 20.1953V15.1474C38.5442 14.7756 38.2429 14.4739 37.8711 14.4732Z" fill="white"/>
</svg>
