<svg width="82" height="82" viewBox="0 0 82 82" fill="none" xmlns="http://www.w3.org/2000/svg">
<rect width="82" height="82" fill="#FD3C3D"/>
<g clip-path="url(#clip0)">
<path d="M27.7726 39.7549L48.705 60.6873C49.1219 61.1042 49.7978 61.1042 50.2146 60.6873L52.2275 58.6744C52.4278 58.4743 52.5402 58.2027 52.5402 57.9196C52.5402 57.6365 52.4278 57.365 52.2275 57.1648L34.0627 39.0001L52.2275 20.8352C52.4278 20.6351 52.5402 20.3636 52.5402 20.0805C52.5402 19.7974 52.4278 19.5258 52.2275 19.3257L50.2146 17.3127C50.0062 17.1044 49.7329 17 49.4598 17C49.1867 17 48.9134 17.1042 48.705 17.3127L27.7726 38.2452C27.3555 38.6621 27.3555 39.338 27.7726 39.7549Z" fill="white"/>
</g>
<defs>
<clipPath id="clip0">
<rect width="44" height="44" fill="white" transform="translate(62 61) rotate(-180)"/>
</clipPath>
</defs>
</svg>
