<svg width="64" height="64" viewBox="0 0 64 64" fill="none" xmlns="http://www.w3.org/2000/svg">
<path d="M31.8 63C48.9208 63 62.8 49.1208 62.8 32C62.8 14.8792 48.9208 1 31.8 1C14.6792 1 0.799988 14.8792 0.799988 32C0.799988 49.1208 14.6792 63 31.8 63Z" stroke="white"/>
<path d="M41.014 23.3467C42.2041 23.3467 43.169 22.3819 43.169 21.1916C43.169 20.0015 42.2041 19.0366 41.014 19.0366C39.8238 19.0366 38.8591 20.0015 38.8591 21.1916C38.8591 22.3819 39.8238 23.3467 41.014 23.3467Z" fill="white"/>
<path d="M20.0602 46.9652C17.5933 46.9652 15.5517 44.9522 15.5517 42.4567V19.4044C15.5517 16.9375 17.5933 14.896 20.0602 14.896H43.1122C45.6076 14.896 47.6207 16.9375 47.6207 19.4044V42.4567C47.6207 44.9522 45.5792 46.9652 43.1122 46.9652H20.0602ZM20.0602 16.8241C18.6424 16.8241 17.4798 17.9867 17.4798 19.4044V42.4567C17.4798 43.8746 18.6424 45.037 20.0602 45.037H43.1122C44.5301 45.037 45.6925 43.8746 45.6925 42.4567V19.4044C45.6925 17.9867 44.5301 16.8241 43.1122 16.8241H20.0602Z" fill="white"/>
<path d="M31.6003 23.1763C27.3188 23.1763 23.8312 26.6638 23.8312 30.9451C23.8312 35.2267 27.2904 38.7142 31.6003 38.7142C35.9101 38.7142 39.3695 35.2267 39.3695 30.9451C39.3695 26.6354 35.8819 23.1763 31.6003 23.1763Z" fill="white"/>
</svg>
