<svg width="70" height="56" viewBox="0 0 70 56" fill="none" xmlns="http://www.w3.org/2000/svg">
<path d="M6.56251 55.832L24.0625 55.832C27.6856 55.832 30.625 53.1526 30.625 49.85L30.625 33.898C30.625 30.5955 27.6856 27.916 24.0625 27.916L13.125 27.916L13.125 19.94C13.125 15.5407 17.0488 11.964 21.875 11.964L22.9688 11.964C24.7871 11.964 26.25 10.6305 26.25 8.973L26.25 2.991C26.25 1.33349 24.7871 1.96931e-07 22.9688 5.14327e-08L21.875 -3.60851e-08C9.78908 -1.00316e-06 1.21099e-05 8.92315 1.10576e-05 19.94L8.20076e-06 49.85C7.88532e-06 53.1526 2.93946 55.832 6.56251 55.832ZM45.9375 55.832L63.4375 55.832C67.0605 55.832 70 53.1526 70 49.85L70 33.898C70 30.5955 67.0605 27.916 63.4375 27.916L52.5 27.916L52.5 19.94C52.5 15.5407 56.4238 11.964 61.25 11.964L62.3438 11.964C64.1621 11.964 65.625 10.6305 65.625 8.97301L65.625 2.991C65.625 1.33349 64.1621 3.34757e-06 62.3438 3.20207e-06L61.25 3.11456e-06C49.1641 2.14748e-06 39.375 8.92315 39.375 19.94L39.375 49.85C39.375 53.1526 42.3145 55.832 45.9375 55.832Z" fill="#FD3C3D"/>
</svg>
