<svg width="40" height="40" viewBox="0 0 40 40" fill="none" xmlns="http://www.w3.org/2000/svg">
<rect width="40" height="40" rx="4" fill="#FD3C3D"/>
<path d="M29.7168 26.4639L25.8228 22.9798C25.7353 22.9016 25.6313 22.8398 25.5169 22.7978C25.4024 22.7559 25.2799 22.7346 25.1562 22.7352H24.5219C25.7938 21.2769 26.3961 19.4395 26.206 17.5976C26.016 15.7556 25.0479 14.0479 23.4991 12.8226C21.9503 11.5973 19.9375 10.9467 17.8711 11.0034C15.8047 11.0602 13.8402 11.82 12.3784 13.128C10.9165 14.436 10.0673 16.1936 10.0038 18.0425C9.9404 19.8914 10.6676 21.6924 12.037 23.0781C13.4065 24.4638 15.3151 25.33 17.3738 25.5001C19.4324 25.6701 21.486 25.1312 23.1159 23.9932V24.5618C23.1152 24.6724 23.139 24.7821 23.1859 24.8844C23.2328 24.9868 23.3019 25.0798 23.3892 25.1582L27.2832 28.6423C27.37 28.7204 27.4732 28.7823 27.5868 28.8246C27.7004 28.8669 27.8223 28.8887 27.9454 28.8887C28.0684 28.8887 28.1903 28.8669 28.3039 28.8246C28.4176 28.7823 28.5207 28.7204 28.6075 28.6423L29.7129 27.6532C29.8883 27.4955 29.9871 27.2822 29.9879 27.0598C29.9886 26.8373 29.8912 26.6235 29.7168 26.4649V26.4639ZM18.1165 22.7362C17.1277 22.7362 16.1611 22.4739 15.3389 21.9824C14.5168 21.4908 13.876 20.7922 13.4976 19.9749C13.1192 19.1575 13.0202 18.2581 13.2131 17.3904C13.406 16.5227 13.8821 15.7256 14.5813 15.1C15.2805 14.4745 16.1713 14.0484 17.1411 13.8758C18.1109 13.7032 19.1161 13.7918 20.0297 14.1304C20.9432 14.4689 21.724 15.0423 22.2733 15.7779C22.8227 16.5135 23.1159 17.3783 23.1159 18.263C23.1161 18.8505 22.9869 19.4322 22.7358 19.9749C22.4846 20.5177 22.1163 21.0108 21.652 21.4261C21.1877 21.8415 20.6365 22.1709 20.0298 22.3955C19.4232 22.6201 18.773 22.7355 18.1165 22.7352V22.7362Z" fill="white"/>
</svg>
