<svg width="43" height="25" viewBox="0 0 43 25" fill="none" xmlns="http://www.w3.org/2000/svg">
<g clip-path="url(#clip0)">
<path d="M41.1928 1.70042C41.4822 0.72382 41.1928 0.00497805 39.7994 0.00497805H35.1906C34.7599 -0.0256022 34.3309 0.0853213 33.9692 0.320826C33.6075 0.556331 33.3329 0.903488 33.1873 1.30934C31.7589 4.70223 29.8513 7.87346 27.5223 10.7265C26.4506 11.7964 25.9575 12.1408 25.3699 12.1408C25.0805 12.1408 24.6342 11.7975 24.6342 10.8209V1.70042C24.6342 0.528277 24.3003 0.00497805 23.3354 0.00497805H16.0889C15.9424 -0.00326073 15.7956 0.0175252 15.6571 0.066139C15.5187 0.114753 15.3912 0.190234 15.282 0.288236C15.1729 0.386238 15.0843 0.504824 15.0212 0.637166C14.9582 0.769508 14.922 0.912991 14.9148 1.05935C14.9148 2.17039 16.5742 2.42593 16.7456 5.55128V12.3286C16.7456 13.813 16.4796 14.0863 15.893 14.0863C14.3282 14.0863 10.5252 8.35221 8.27151 1.79042C7.81742 0.517167 7.37112 0.00164518 6.19027 0.00164518H1.5804C0.265997 0.00164518 0 0.618271 0 1.306C0 2.52815 1.56482 8.57886 7.28543 16.5783C11.0962 22.0391 16.4651 25 21.3477 25C24.2825 25 24.642 24.3434 24.642 23.2112C24.642 17.9893 24.376 17.5005 25.8473 17.5005C26.5285 17.5005 27.7015 17.8438 30.4405 20.477C33.5713 23.6023 34.0877 25 35.8406 25H40.4494C41.7638 25 42.4293 24.3434 42.0453 23.0468C41.1694 20.3203 35.2452 14.714 34.9792 14.3363C34.298 13.4608 34.4939 13.0708 34.9792 12.2897C34.987 12.2819 40.6141 4.3758 41.1928 1.69709V1.70042Z" fill="white"/>
</g>
<defs>
<clipPath id="clip0">
<rect width="42.1533" height="25" fill="white"/>
</clipPath>
</defs>
</svg>
