<?xml version="1.0" standalone="no"?>
<!DOCTYPE svg PUBLIC "-//W3C//DTD SVG 20010904//EN"
 "http://www.w3.org/TR/2001/REC-SVG-20010904/DTD/svg10.dtd">
<svg version="1.0" xmlns="http://www.w3.org/2000/svg"
 width="984.000000pt" height="984.000000pt" viewBox="0 0 984.000000 984.000000"
 preserveAspectRatio="xMidYMid meet">
<metadata>
Created by potrace 1.14, written by Peter Selinger 2001-2017
</metadata>
<g transform="translate(0.000000,984.000000) scale(0.100000,-0.100000)"
fill="#000000" stroke="none">
<path d="M4749 9826 c-2 -2 -47 -7 -99 -10 -95 -7 -122 -9 -215 -21 -75 -9
-110 -13 -110 -15 0 -1 -13 -3 -30 -5 -28 -3 -66 -9 -125 -20 -14 -3 -38 -7
-55 -10 -16 -3 -41 -7 -55 -10 -14 -3 -36 -8 -49 -11 -13 -3 -51 -12 -85 -20
-34 -8 -72 -17 -86 -20 -32 -7 -133 -36 -240 -68 -47 -15 -89 -28 -95 -29 -9
-2 -22 -7 -90 -33 -11 -4 -22 -8 -25 -8 -20 -4 -137 -51 -145 -58 -5 -4 -19
-8 -31 -8 -12 0 -27 -7 -34 -15 -7 -8 -18 -15 -25 -15 -7 0 -39 -12 -71 -27
-33 -15 -61 -27 -64 -28 -22 -4 -371 -188 -401 -210 -8 -6 -31 -20 -51 -30
-21 -11 -38 -23 -38 -27 0 -5 -5 -8 -11 -8 -13 0 -165 -100 -246 -162 -34 -27
-65 -48 -68 -48 -4 0 -12 -6 -19 -12 -7 -7 -30 -26 -51 -43 -146 -115 -239
-198 -395 -355 -74 -75 -153 -157 -175 -184 -22 -27 -48 -58 -59 -70 -10 -11
-35 -41 -55 -66 -20 -25 -42 -51 -49 -58 -6 -7 -12 -16 -12 -20 0 -4 -14 -22
-31 -41 -41 -47 -239 -344 -239 -359 0 -7 -4 -12 -10 -12 -5 0 -10 -7 -10 -15
0 -8 -3 -15 -7 -15 -5 0 -13 -10 -18 -23 -26 -54 -81 -152 -87 -155 -5 -2 -8
-12 -8 -23 0 -10 -4 -19 -10 -19 -5 0 -10 -4 -10 -10 0 -5 -27 -63 -59 -130
-33 -66 -59 -122 -59 -123 -1 -4 -20 -52 -55 -137 -54 -131 -122 -332 -172
-505 -9 -33 -23 -80 -30 -105 -11 -38 -43 -175 -60 -260 -2 -14 -10 -47 -16
-75 -14 -65 -18 -91 -23 -142 -3 -24 -7 -46 -10 -51 -4 -7 -12 -56 -20 -132
-3 -26 -15 -116 -21 -160 -2 -14 -6 -59 -10 -100 -4 -41 -8 -91 -10 -110 -25
-271 -25 -876 0 -1105 3 -22 7 -60 10 -85 2 -25 8 -70 11 -100 4 -30 8 -68 9
-85 2 -16 6 -43 9 -60 3 -16 10 -59 16 -95 5 -36 17 -99 25 -140 8 -41 17 -84
19 -95 5 -24 24 -112 30 -140 6 -28 54 -210 72 -272 9 -29 16 -56 17 -60 1 -5
19 -57 40 -118 21 -60 39 -114 41 -120 47 -156 281 -664 336 -730 7 -8 9 -15
6 -15 -4 0 7 -20 24 -44 16 -25 30 -47 30 -51 0 -4 13 -26 30 -50 16 -24 30
-48 30 -54 0 -6 5 -11 10 -11 6 0 10 -6 10 -13 0 -8 9 -22 20 -32 11 -10 20
-23 20 -29 0 -6 12 -24 26 -41 14 -16 35 -45 47 -65 12 -19 32 -46 44 -60 13
-14 23 -28 23 -31 0 -3 13 -22 30 -40 16 -19 30 -38 30 -42 0 -4 12 -20 28
-35 15 -15 35 -38 44 -51 29 -42 138 -161 253 -276 98 -98 133 -132 250 -234
48 -43 177 -145 215 -171 19 -13 37 -27 40 -30 8 -11 249 -170 256 -170 4 0
15 -6 23 -14 53 -47 581 -306 623 -306 8 0 19 -5 24 -10 6 -6 19 -12 30 -15
10 -2 57 -18 104 -36 47 -17 92 -32 100 -35 8 -2 78 -22 155 -44 77 -22 151
-42 165 -44 14 -2 43 -8 65 -14 22 -6 56 -14 75 -17 19 -3 55 -11 80 -16 25
-6 59 -12 75 -15 17 -2 50 -6 75 -9 25 -4 59 -8 75 -10 17 -2 30 -4 30 -5 0
-3 136 -19 210 -24 232 -18 520 -23 700 -11 164 11 200 13 200 15 0 1 16 3 35
5 41 5 124 15 160 20 26 3 50 7 140 25 30 6 64 13 75 15 11 2 31 6 45 9 14 3
35 8 48 11 12 3 31 7 42 10 11 3 28 7 38 9 22 5 120 35 152 47 14 5 34 11 45
14 24 5 132 42 160 55 11 5 63 27 116 49 104 43 276 130 320 161 15 11 30 20
33 20 6 0 176 110 186 120 3 3 19 14 35 24 17 11 34 25 38 33 4 7 13 13 18 13
6 0 16 6 23 13 7 6 32 28 56 47 23 19 62 53 85 75 24 22 56 52 71 66 49 44
158 161 204 219 25 30 48 57 51 60 3 3 11 14 17 25 11 19 11 19 13 -5 1 -14 3
-36 5 -50 1 -14 5 -56 8 -95 3 -38 8 -88 11 -110 10 -89 24 -222 30 -300 1
-16 6 -60 9 -97 4 -37 9 -90 12 -118 2 -27 6 -73 8 -101 3 -29 10 -57 15 -62
6 -6 11 -8 11 -4 0 4 9 3 20 -3 13 -7 20 -7 20 -1 0 7 9 7 25 1 13 -5 26 -6
29 -2 5 8 63 8 72 0 3 -4 19 -2 35 2 16 5 29 5 29 0 0 -5 13 -5 30 0 17 5 30
5 30 0 0 -5 13 -5 30 0 18 5 30 5 30 0 0 -6 10 -6 25 0 14 5 27 5 30 0 3 -5
18 -5 35 0 17 5 30 5 30 0 0 -5 13 -5 30 0 17 5 30 5 30 0 0 -5 13 -5 30 0 18
5 30 5 30 0 0 -6 10 -6 25 0 14 5 27 5 30 0 3 -5 18 -5 35 0 17 5 30 5 30 0 0
-5 12 -5 28 -1 15 5 37 5 49 0 13 -5 25 -4 28 1 3 5 12 7 19 4 21 -8 106 -10
106 -2 0 4 14 3 30 -2 17 -5 30 -5 30 0 0 5 13 5 30 0 19 -5 30 -5 30 1 0 6 5
7 10 4 14 -9 118 -10 126 -2 4 3 14 2 23 -3 10 -5 23 -5 31 0 8 5 21 5 30 0 9
-5 22 -5 30 0 7 4 24 4 36 0 13 -5 25 -6 28 -2 5 8 58 8 72 -1 6 -3 16 -2 24
3 8 5 21 5 31 -1 11 -6 20 -5 24 1 3 6 15 6 30 0 15 -6 27 -6 30 0 3 6 15 6
30 0 15 -6 27 -6 30 0 3 6 15 6 30 0 15 -6 25 -6 25 0 0 5 12 5 30 0 17 -5 30
-5 30 -1 0 4 10 7 23 7 l22 -1 0 2575 0 2575 -1912 0 c-1295 0 -1913 -3 -1914
-10 -1 -5 -3 -457 -3 -1002 l-2 -993 626 -1 c344 -1 631 -1 637 0 10 1 10 -5
2 -26 -6 -15 -10 -30 -10 -33 2 -10 -31 -115 -46 -150 -29 -67 -38 -85 -72
-145 -68 -119 -178 -246 -296 -340 -27 -22 -53 -44 -56 -48 -3 -5 -9 -7 -12
-5 -4 1 -15 -5 -26 -14 -11 -9 -35 -25 -53 -34 -18 -9 -35 -20 -38 -23 -7 -9
-110 -58 -192 -91 -80 -32 -233 -78 -288 -86 -19 -3 -64 -12 -100 -18 -36 -7
-77 -12 -93 -12 -15 1 -27 -1 -27 -4 0 -6 -365 -4 -430 3 -25 3 -61 7 -80 10
-19 3 -60 9 -90 13 -30 4 -57 8 -60 9 -3 1 -18 4 -35 8 -16 4 -39 9 -50 11
-59 11 -191 52 -275 86 -81 32 -244 112 -248 122 -2 4 -9 8 -16 8 -7 0 -23 9
-36 20 -13 11 -29 20 -37 20 -7 0 -13 4 -13 8 0 5 -23 23 -51 42 -28 18 -53
39 -56 46 -3 8 -10 14 -17 14 -14 0 -186 167 -186 181 0 6 -4 7 -10 4 -5 -3
-10 -2 -10 2 0 9 -34 53 -82 107 -16 17 -28 36 -28 42 0 7 -4 14 -8 16 -11 4
-81 109 -121 180 -37 68 -101 194 -101 201 0 2 -6 20 -14 38 -8 19 -14 36 -13
39 1 3 -6 16 -16 30 -9 13 -17 30 -17 37 0 6 -5 24 -12 40 -6 15 -12 30 -13
33 0 3 -13 43 -27 90 -26 80 -61 219 -73 285 -32 175 -52 312 -50 358 0 21 -2
37 -5 37 -3 0 -5 29 -5 65 0 36 -4 65 -9 65 -4 0 -4 6 2 13 7 8 7 18 2 27 -5
8 -6 19 -3 24 9 14 10 56 2 56 -7 0 -3 49 4 57 3 2 2 17 -2 31 -4 15 -4 39 0
55 4 15 4 27 1 27 -4 0 -6 15 -5 32 1 18 2 33 3 33 1 0 3 68 5 150 4 135 7
201 19 345 4 56 17 169 22 194 2 11 6 42 9 70 3 28 11 71 16 96 6 25 13 60 15
79 3 19 9 52 15 75 6 23 11 48 11 56 0 8 5 21 11 28 5 6 7 12 4 12 -3 0 3 28
13 62 11 34 17 65 14 70 -3 4 -1 8 4 8 5 0 9 6 9 13 2 20 63 188 86 232 11 22
19 41 18 43 -2 4 61 126 81 155 11 15 17 27 14 27 -4 0 13 28 36 63 105 154
197 257 323 360 90 74 87 72 116 87 13 7 26 16 29 19 24 28 360 183 360 165 0
-2 10 0 21 7 31 16 209 58 274 64 17 2 30 4 30 5 0 8 234 23 345 23 136 0 241
-11 335 -34 65 -16 180 -52 185 -58 3 -3 12 -7 20 -9 36 -8 170 -79 249 -133
101 -67 239 -194 302 -276 24 -32 46 -60 49 -63 54 -51 193 -354 214 -466 3
-16 9 -46 15 -66 5 -21 6 -38 3 -38 -3 0 -1 -5 6 -12 9 -9 339 -11 1349 -10
736 0 1357 1 1380 1 35 1 41 4 38 19 -3 9 -9 36 -15 60 -6 24 -8 47 -5 53 4 5
2 9 -3 9 -5 0 -9 6 -10 13 -2 27 -10 66 -32 152 -12 50 -23 95 -24 100 -12 53
-106 354 -123 395 -3 8 -7 18 -8 23 -2 4 -4 9 -5 12 -1 3 -3 8 -4 13 -5 22
-19 61 -33 91 -8 18 -16 39 -17 46 -1 7 -8 20 -15 29 -7 8 -10 20 -6 26 3 5 1
10 -4 10 -6 0 -11 7 -11 15 0 8 -4 23 -10 33 -5 9 -24 49 -41 87 -17 39 -45
99 -63 135 -18 36 -46 90 -61 120 -15 30 -34 62 -41 70 -7 8 -13 20 -14 25 -2
16 -211 347 -230 365 -3 3 -35 43 -70 90 -35 47 -69 90 -74 96 -6 6 -27 30
-46 54 -19 24 -55 65 -80 90 -25 26 -54 58 -66 71 -35 40 -175 171 -249 234
-38 32 -75 64 -81 69 -6 6 -22 18 -34 26 -12 8 -34 25 -48 38 -28 24 -131 96
-211 147 -25 16 -47 33 -49 37 -2 4 -7 8 -12 8 -4 0 -38 18 -74 40 -136 83
-477 249 -576 280 -14 5 -77 27 -140 50 -99 36 -207 69 -274 85 -10 2 -33 9
-50 15 -17 5 -80 21 -141 35 -114 27 -123 29 -190 40 -22 3 -47 8 -55 10 -8 2
-35 7 -60 10 -25 4 -61 10 -80 14 -20 4 -50 7 -68 7 -18 -1 -32 2 -32 5 0 3
-12 6 -27 6 -37 2 -148 12 -148 13 0 2 -46 7 -140 15 -78 7 -720 16 -726 11z"/>
</g>
</svg>
