<svg width="30" height="30" viewBox="0 0 30 30" fill="none" xmlns="http://www.w3.org/2000/svg">
<rect x="30" width="30" height="30" transform="rotate(90 30 0)" fill="#FD3C3D"/>
<g clip-path="url(#clip0)">
<path d="M14.7254 10.5536L7.11357 18.1654C6.96198 18.317 6.96198 18.5628 7.11357 18.7144L7.84556 19.4464C7.91833 19.5192 8.01708 19.5601 8.12002 19.5601C8.22296 19.5601 8.32171 19.5192 8.39448 19.4464L14.9998 12.8409L21.6052 19.4464C21.678 19.5192 21.7768 19.5601 21.8797 19.5601C21.9826 19.5601 22.0814 19.5192 22.1542 19.4464L22.8862 18.7144C22.9619 18.6386 22.9999 18.5392 22.9999 18.4399C22.9999 18.3406 22.962 18.2412 22.8862 18.1654L15.2744 10.5536C15.1228 10.402 14.877 10.402 14.7254 10.5536Z" fill="white"/>
</g>
<defs>
<clipPath id="clip0">
<rect width="16" height="16" fill="white" transform="translate(7 23) rotate(-90)"/>
</clipPath>
</defs>
</svg>
