<svg width="48" height="28" viewBox="0 0 48 28" fill="none" xmlns="http://www.w3.org/2000/svg">
<path d="M44.8 0H3.2C1.43269 0 0 1.44646 0 3.23077V24.7692C0 26.5535 1.43269 28 3.2 28H44.8C46.5673 28 48 26.5535 48 24.7692V3.23077C48 1.44646 46.5673 0 44.8 0Z" fill="#FD3C3D"/>
<path d="M16.5349 6.46155H10.1366C7.49065 6.46155 5.33789 8.635 5.33789 11.3064V15.0747C5.33789 17.6558 7.34748 19.772 9.87001 19.9122V22.1581C9.87001 22.4103 10.0737 22.6154 10.324 22.6154C10.4437 22.6154 10.557 22.5675 10.6426 22.4811L11.1428 21.9761C12.456 20.65 14.2024 19.9195 16.0601 19.9195H16.5349C19.1809 19.9195 21.3336 17.7461 21.3336 15.0747V11.3064C21.3336 8.635 19.1809 6.46155 16.5349 6.46155ZM9.87001 14.2672C9.2819 14.2672 8.80363 13.7843 8.80363 13.1905C8.80363 12.5968 9.2819 12.1139 9.87001 12.1139C10.4581 12.1139 10.9364 12.5968 10.9364 13.1905C10.9364 13.7843 10.4579 14.2672 9.87001 14.2672ZM13.3357 14.2672C12.7477 14.2672 12.2694 13.7843 12.2694 13.1905C12.2694 12.5968 12.7477 12.1139 13.3357 12.1139C13.9239 12.1139 14.4021 12.5968 14.4021 13.1905C14.4021 13.7843 13.9236 14.2672 13.3357 14.2672ZM16.8015 14.2672C16.2134 14.2672 15.7351 13.7843 15.7351 13.1905C15.7351 12.5968 16.2134 12.1139 16.8015 12.1139C17.3896 12.1139 17.8679 12.5968 17.8679 13.1905C17.8679 13.7843 17.3893 14.2672 16.8015 14.2672Z" fill="white"/>
<path d="M37.1887 14.4997C37.1887 11.2258 36.3468 9.58891 34.6628 9.58891C32.9789 9.58891 32.137 11.2258 32.137 14.4997C32.137 17.7735 32.9789 19.4104 34.6628 19.4104C36.3468 19.4104 37.1887 17.7735 37.1887 14.4997ZM38.81 14.4997C38.81 16.1654 38.554 17.5323 38.042 18.6006C37.3366 20.0595 36.2102 20.7889 34.6628 20.7889C33.1154 20.7889 31.989 20.0595 31.2836 18.6006C30.7716 17.5323 30.5156 16.1654 30.5156 14.4997C30.5156 12.834 30.7716 11.4671 31.2836 10.3988C31.989 8.93988 33.1154 8.21045 34.6628 8.21045C36.2102 8.21045 37.3366 8.93988 38.042 10.3988C38.554 11.4671 38.81 12.834 38.81 14.4997Z" fill="white"/>
</svg>
