<svg width="115" height="123" viewBox="0 0 115 123" fill="none" xmlns="http://www.w3.org/2000/svg">
<path d="M0.904 62.6C0.904 95.892 22.224 122.788 56.828 122.788C69.784 122.788 82.084 118.524 90.12 108.028L91.268 120H114.064V55.548H66.176V80.64H82.084C80.28 89.332 71.752 93.596 63.388 93.596C41.576 93.596 36.984 74.408 36.984 63.42C36.984 51.448 37.64 29.308 60.928 29.308C69.456 29.308 76.672 35.376 77.984 43.904H112.588C107.34 16.188 88.644 0.115999 58.632 0.115999C32.392 0.115999 0.904 17.992 0.904 62.6Z" fill="#FD3C3D"/>
</svg>
