<svg width="25" height="25" viewBox="0 0 25 25" fill="none" xmlns="http://www.w3.org/2000/svg">
<g clip-path="url(#clip0)">
<path d="M22.3214 0H2.67857C1.96817 0 1.28686 0.282206 0.784535 0.784535C0.282206 1.28687 0 1.96817 0 2.67857L0 22.3214C0 23.0318 0.282206 23.7131 0.784535 24.2155C1.28686 24.7178 1.96817 25 2.67857 25H10.3373V16.5008H6.8254V12.5H10.3413V9.45079C10.3413 5.98254 12.4048 4.06667 15.5683 4.06667C16.6052 4.08114 17.6397 4.17133 18.6635 4.33651V7.7381H16.9175C16.6201 7.69872 16.3177 7.7267 16.0327 7.81996C15.7476 7.91322 15.4872 8.06937 15.2706 8.27688C15.054 8.48438 14.8869 8.73791 14.7815 9.01873C14.6762 9.29955 14.6353 9.60046 14.6619 9.89921V12.5H18.5L17.8865 16.5008H14.6627V25H22.3214C23.0318 25 23.7131 24.7178 24.2155 24.2155C24.7178 23.7131 25 23.0318 25 22.3214V2.67857C25 1.96817 24.7178 1.28687 24.2155 0.784535C23.7131 0.282206 23.0318 0 22.3214 0Z" fill="white"/>
</g>
<defs>
<clipPath id="clip0">
<rect width="25" height="25" fill="white"/>
</clipPath>
</defs>
</svg>
