<svg width="82" height="82" viewBox="0 0 82 82" fill="none" xmlns="http://www.w3.org/2000/svg">
<rect width="82" height="82" fill="#FD3C3D"/>
<g clip-path="url(#clip0)">
<path d="M53.2275 40.2451L32.295 19.3127C31.8782 18.8958 31.2022 18.8958 30.7855 19.3127L28.7725 21.3256C28.5723 21.5257 28.4598 21.7973 28.4598 22.0804C28.4598 22.3635 28.5723 22.635 28.7725 22.8352L46.9374 40.9999L28.7725 59.1648C28.5723 59.3649 28.4598 59.6364 28.4598 59.9195C28.4598 60.2026 28.5723 60.4742 28.7725 60.6743L30.7855 62.6873C30.9939 62.8956 31.2671 63 31.5403 63C31.8134 63 32.0867 62.8958 32.295 62.6873L53.2275 41.7548C53.6445 41.3379 53.6445 40.662 53.2275 40.2451Z" fill="white"/>
</g>
<defs>
<clipPath id="clip0">
<rect width="44" height="44" fill="white" transform="translate(19 19)"/>
</clipPath>
</defs>
</svg>
