<svg width="13" height="24" viewBox="0 0 13 24" fill="none" xmlns="http://www.w3.org/2000/svg">
<path d="M12.8379 11.5883L1.98791 0.170543C1.77182 -0.0568472 1.42147 -0.0568473 1.20546 0.170543L0.162081 1.26852C0.0582815 1.37767 -2.66779e-07 1.5258 -2.93778e-07 1.68021C-3.20777e-07 1.83463 0.0582814 1.98275 0.162081 2.09191L9.57753 12L0.162078 21.9081C0.0582779 22.0172 -3.87551e-06 22.1653 -3.90251e-06 22.3198C-3.92951e-06 22.4742 0.0582778 22.6223 0.162077 22.7315L1.20546 23.8294C1.31346 23.9431 1.45511 24 1.59668 24C1.73825 24 1.8799 23.9432 1.9879 23.8294L12.8379 12.4117C13.054 12.1843 13.054 11.8157 12.8379 11.5883Z" fill="#FD3C3D"/>
</svg>
