<svg width="20" height="20" viewBox="0 0 20 20" fill="none" xmlns="http://www.w3.org/2000/svg">
<path d="M19.2734 0.96134L15.211 0.0238594C14.7696 -0.0777009 14.3165 0.152763 14.1368 0.566817L12.2619 4.94172C12.0978 5.32453 12.2072 5.77374 12.5314 6.03545L14.8985 7.97291C13.4923 10.9689 11.0353 13.4611 7.9768 14.8946L6.03934 12.5275C5.77372 12.2033 5.32842 12.0939 4.94561 12.258L0.570707 14.1329C0.152747 14.3165 -0.0777165 14.7696 0.0238439 15.211L0.961324 19.2735C1.05898 19.6953 1.43397 20 1.87537 20C11.8791 20 20 11.8947 20 1.87538C20 1.43789 19.6992 1.05899 19.2734 0.96134Z" fill="#FD3C3D"/>
</svg>
