<svg width="15" height="20" viewBox="0 0 15 20" fill="none" xmlns="http://www.w3.org/2000/svg">
<path d="M7.0318 4.68768C6.56817 4.68768 6.11494 4.82517 5.72945 5.08275C5.34395 5.34033 5.04349 5.70644 4.86606 6.13478C4.68864 6.56312 4.64222 7.03446 4.73267 7.48919C4.82312 7.94391 5.04638 8.36161 5.37422 8.68944C5.70206 9.01728 6.11975 9.24055 6.57447 9.331C7.0292 9.42145 7.50054 9.37502 7.92888 9.1976C8.35722 9.02017 8.72333 8.71971 8.98091 8.33422C9.23849 7.94872 9.37598 7.4955 9.37598 7.03186C9.37545 6.41031 9.1283 5.81437 8.6888 5.37486C8.2493 4.93536 7.65335 4.68821 7.0318 4.68768Z" fill="#FD3C3D"/>
<path d="M7.03178 0C5.77968 0.000370605 4.55036 0.334966 3.47079 0.969233C2.39122 1.6035 1.50052 2.51445 0.89068 3.608C0.280838 4.70156 -0.026042 5.93808 0.00173094 7.18988C0.0295039 8.44168 0.390923 9.66338 1.04866 10.7288L6.63175 19.7242C6.68491 19.8092 6.75899 19.8793 6.84693 19.9276C6.93486 19.9759 7.03371 20.0008 7.13403 20C7.23435 19.9992 7.33279 19.9727 7.41994 19.923C7.50709 19.8733 7.58004 19.8021 7.63183 19.7162L13.0722 10.6341C13.7083 9.56656 14.0502 8.34951 14.0631 7.10687C14.076 5.86423 13.7595 4.64035 13.1457 3.55979C12.5319 2.47924 11.6428 1.58058 10.5689 0.95529C9.49492 0.329995 8.27449 0.000382787 7.03178 0V0ZM7.03178 10.5555C6.33488 10.5555 5.65363 10.3488 5.07418 9.96163C4.49472 9.57445 4.0431 9.02414 3.7764 8.38029C3.50971 7.73644 3.43993 7.02796 3.57589 6.34445C3.71185 5.66093 4.04744 5.03309 4.54022 4.5403C5.03301 4.04752 5.66085 3.71193 6.34436 3.57597C7.02788 3.44001 7.73635 3.50979 8.38021 3.77648C9.02406 4.04318 9.57437 4.49481 9.96155 5.07426C10.3487 5.65371 10.5554 6.33496 10.5554 7.03187C10.5549 7.96622 10.1834 8.86215 9.52276 9.52284C8.86207 10.1835 7.96614 10.5549 7.03178 10.5555Z" fill="#FD3C3D"/>
</svg>
