<svg width="57" height="57" viewBox="0 0 57 57" fill="none" xmlns="http://www.w3.org/2000/svg">
<circle cx="28.5" cy="28.5" r="28.5" fill="#6443FF"/>
<path d="M40.4631 16H16.5369C14.0353 16 12 18.0349 12 20.5369V35.1792C12 37.6756 14.0264 39.7073 16.5208 39.7161V46.3606L26.0697 39.7161H40.4631C42.9647 39.7161 45 37.6808 45 35.1792V20.5369C45 18.0349 42.9647 16 40.4631 16V16ZM43.0664 35.1792C43.0664 36.6145 41.8986 37.7825 40.4631 37.7825H25.463L18.4544 42.6596V37.7825H16.5369C15.1014 37.7825 13.9336 36.6145 13.9336 35.1792V20.5369C13.9336 19.1012 15.1014 17.9336 16.5369 17.9336H40.4631C41.8986 17.9336 43.0664 19.1012 43.0664 20.5369V35.1792Z" fill="white"/>
<path d="M20.8323 22.8322H36.1677V24.7657H20.8323V22.8322Z" fill="white"/>
<path d="M20.8323 26.9572H36.1677V28.8907H20.8323V26.9572Z" fill="white"/>
<path d="M20.8323 31.0822H36.1677V33.0157H20.8323V31.0822Z" fill="white"/>
</svg>
