<svg width="35" height="35" viewBox="0 0 35 35" fill="none" xmlns="http://www.w3.org/2000/svg">
<circle cx="17.5" cy="17.5" r="17.5" fill="#FD3C3D"/>
<path d="M24.8458 9.82446H10.1542C8.61816 9.82446 7.36841 11.074 7.36841 12.6103V21.6012C7.36841 23.134 8.61272 24.3816 10.1443 24.387V28.467L16.0077 24.387H24.8458C26.3818 24.387 27.6316 23.1372 27.6316 21.6012V12.6103C27.6316 11.074 26.3818 9.82446 24.8458 9.82446V9.82446ZM26.4443 21.6012C26.4443 22.4825 25.7272 23.1997 24.8458 23.1997H15.6352L11.3316 26.1944V23.1997H10.1542C9.27278 23.1997 8.5557 22.4825 8.5557 21.6012V12.6103C8.5557 11.7287 9.27278 11.0118 10.1542 11.0118H24.8458C25.7272 11.0118 26.4443 11.7287 26.4443 12.6103V21.6012Z" fill="white"/>
<path d="M12.7917 14.0198H22.2082V15.2071H12.7917V14.0198Z" fill="white"/>
<path d="M12.7917 16.5527H22.2082V17.74H12.7917V16.5527Z" fill="white"/>
<path d="M12.7917 19.0854H22.2082V20.2727H12.7917V19.0854Z" fill="white"/>
</svg>
