<svg width="13" height="24" viewBox="0 0 13 24" fill="none" xmlns="http://www.w3.org/2000/svg">
<path d="M0.162116 12.4117L11.0121 23.8295C11.2282 24.0568 11.5785 24.0568 11.7945 23.8295L12.8379 22.7315C12.9417 22.6223 13 22.4742 13 22.3198C13 22.1654 12.9417 22.0172 12.8379 21.9081L3.42247 12L12.8379 2.09193C12.9417 1.98278 13 1.83465 13 1.68023C13 1.52582 12.9417 1.3777 12.8379 1.26854L11.7945 0.170563C11.6865 0.0569075 11.5449 1.78014e-06 11.4033 1.76776e-06C11.2617 1.75539e-06 11.1201 0.0568293 11.0121 0.170563L0.162116 11.5883C-0.0540408 11.8157 -0.0540408 12.1844 0.162116 12.4117Z" fill="#FD3C3D"/>
</svg>
