<svg width="12" height="13" viewBox="0 0 12 13" fill="none" xmlns="http://www.w3.org/2000/svg">
<g clip-path="url(#clip0)">
<path d="M10.8351 1.2381C11.2348 1.65571 11.5446 2.15159 11.745 2.69479C11.9454 3.23799 12.0322 3.81685 12 4.39524C12.0285 4.92028 11.9516 5.44572 11.7737 5.94026C11.5958 6.4348 11.3206 6.88832 10.9646 7.27381C9.87365 8.40667 8.43143 8.5119 7.15562 8.5119H4.93066V9.65714H8.50539V11.3657H4.93066V13H1.62712V11.3657H0V9.65714H1.62712V8.52429H0V6.19048H1.62712V0H6.52696C8.01233 0 9.74422 0.185714 10.8351 1.2381ZM6.37905 6.19048C6.96366 6.2528 7.54946 6.08405 8.01233 5.72C8.18276 5.55141 8.31545 5.34825 8.40154 5.12408C8.48762 4.89991 8.52513 4.65988 8.51156 4.42C8.53447 4.18124 8.50797 3.9403 8.43372 3.71232C8.35947 3.48434 8.23909 3.27425 8.08012 3.09524C7.66528 2.7834 7.15553 2.62587 6.6379 2.64952H4.93066V6.19048H6.37905Z" fill="white"/>
</g>
<defs>
<clipPath id="clip0">
<rect width="12" height="13" fill="white"/>
</clipPath>
</defs>
</svg>
