<svg width="20" height="20" viewBox="0 0 20 20" fill="none" xmlns="http://www.w3.org/2000/svg">
<g clip-path="url(#clip0)">
<path d="M19.7245 17.2909L15.8305 13.3969C15.7429 13.3096 15.639 13.2405 15.5245 13.1935C15.4101 13.1466 15.2876 13.1228 15.1639 13.1236H14.5295C15.8014 11.4937 16.4038 9.44008 16.2137 7.38143C16.0237 5.32278 15.0556 3.41414 13.5068 2.04468C11.958 0.675211 9.94521 -0.0519413 7.87878 0.0114861C5.81235 0.0749135 3.84792 0.924144 2.38605 2.38602C0.924174 3.84789 0.074944 5.81232 0.0115166 7.87875C-0.0519108 9.94518 0.675241 11.958 2.04471 13.5068C3.41417 15.0555 5.32281 16.0237 7.38146 16.2137C9.44011 16.4037 11.4937 15.8014 13.1236 14.5295V15.165C13.1229 15.2886 13.1467 15.4112 13.1936 15.5256C13.2405 15.64 13.3096 15.744 13.3969 15.8316L17.2909 19.7256C17.3777 19.8129 17.4809 19.8821 17.5945 19.9294C17.7081 19.9766 17.83 20.001 17.953 20.001C18.0761 20.001 18.198 19.9766 18.3116 19.9294C18.4252 19.8821 18.5284 19.8129 18.6152 19.7256L19.7206 18.6202C19.896 18.4439 19.9948 18.2055 19.9955 17.9569C19.9963 17.7082 19.8989 17.4693 19.7245 17.292V17.2909ZM8.12414 13.1247C7.13534 13.1247 6.16875 12.8315 5.3466 12.2821C4.52444 11.7328 3.88365 10.952 3.50526 10.0384C3.12686 9.1249 3.02785 8.11967 3.22076 7.14988C3.41366 6.18008 3.88981 5.28926 4.589 4.59008C5.28818 3.89089 6.179 3.41474 7.1488 3.22184C8.1186 3.02893 9.12382 3.12794 10.0373 3.50634C10.9509 3.88473 11.7317 4.52552 12.281 5.34768C12.8304 6.16983 13.1236 7.13642 13.1236 8.12522C13.1238 8.78177 12.9946 9.43192 12.7434 10.0385C12.4923 10.6451 12.124 11.1963 11.6597 11.6605C11.1954 12.1247 10.6442 12.4928 10.0375 12.7438C9.43087 12.9949 8.78069 13.1239 8.12414 13.1236V13.1247Z" fill="#FD3C3D"/>
</g>
<defs>
<clipPath id="clip0">
<rect width="19.9961" height="20" fill="white"/>
</clipPath>
</defs>
</svg>
