<svg width="36" height="35" viewBox="0 0 36 35" fill="none" xmlns="http://www.w3.org/2000/svg">
<path d="M21.3612 13.1111V15.2985C21.3607 15.5159 21.2716 15.7243 21.1134 15.8781C20.9553 16.0319 20.7409 16.1185 20.5172 16.119H16.5802V19.9475C16.5797 20.1649 16.4906 20.3733 16.3324 20.5271C16.1743 20.6808 15.9599 20.7675 15.7362 20.768H13.4862C13.2626 20.7675 13.0482 20.6808 12.89 20.5271C12.7319 20.3733 12.6428 20.1649 12.6422 19.9475V16.119H8.70523C8.48155 16.1185 8.26718 16.0319 8.10902 15.8781C7.95085 15.7243 7.86176 15.5159 7.86123 15.2985V13.1111C7.86176 12.8936 7.95085 12.6852 8.10902 12.5314C8.26718 12.3777 8.48155 12.2911 8.70523 12.2905H12.6432V8.46307C12.6438 8.24561 12.7329 8.03721 12.891 7.88344C13.0492 7.72967 13.2636 7.64306 13.4872 7.64255H15.7372C15.9609 7.64306 16.1753 7.72967 16.3334 7.88344C16.4916 8.03721 16.5807 8.24561 16.5812 8.46307V12.2915H20.5192C20.7424 12.2925 20.9561 12.3793 21.1138 12.5328C21.2715 12.6863 21.3604 12.8941 21.3612 13.1111ZM35.4942 32.5722L33.5042 34.5068C33.348 34.6596 33.1623 34.7808 32.9577 34.8635C32.7531 34.9462 32.5338 34.9888 32.3122 34.9888C32.0907 34.9888 31.8713 34.9462 31.6667 34.8635C31.4622 34.7808 31.2764 34.6596 31.1202 34.5068L24.1032 27.6938C23.9461 27.5405 23.8217 27.3586 23.7372 27.1583C23.6528 26.9581 23.61 26.7436 23.6112 26.5272V25.415C20.6772 27.641 16.9802 28.6951 13.2743 28.3625C9.56828 28.0299 6.13234 26.3356 3.66703 23.6251C1.20172 20.9145 -0.107294 17.3919 0.00688786 13.7754C0.12107 10.1589 1.64985 6.72087 4.28152 4.16242C6.91318 1.60396 10.4495 0.117702 14.1695 0.00669625C17.8895 -0.104309 21.513 1.1683 24.3011 3.56502C27.0892 5.96175 28.832 9.30211 29.1741 12.905C29.5162 16.5079 28.4319 20.102 26.1422 22.9544H27.2862C27.5088 22.9532 27.7295 22.9948 27.9354 23.0769C28.1414 23.159 28.3286 23.2799 28.4862 23.4327L35.4962 30.2477C35.8108 30.5574 35.987 30.9752 35.9866 31.4104C35.9862 31.8456 35.8093 32.2631 35.4942 32.5722ZM24.1742 14.2048C24.1742 12.366 23.6133 10.5685 22.5625 9.03955C21.5117 7.51065 20.0181 6.31903 18.2706 5.6154C16.5231 4.91176 14.6003 4.72771 12.7452 5.08651C10.8901 5.44531 9.18619 6.33086 7.84882 7.63116C6.51145 8.93147 5.60074 10.5881 5.23186 12.3916C4.86298 14.1951 5.05251 16.0645 5.77646 17.7632C6.50041 19.462 7.72628 20.9139 9.29904 21.9354C10.8718 22.9568 12.7208 23.5019 14.6122 23.5017C15.8683 23.5028 17.1123 23.263 18.2729 22.7961C19.4336 22.3293 20.4881 21.6445 21.3763 20.781C22.2644 19.9174 22.9687 18.8921 23.4488 17.7637C23.9289 16.6353 24.1754 15.4259 24.1742 14.2048Z" fill="white"/>
</svg>
