<svg width="62" height="62" viewBox="0 0 62 62" fill="none" xmlns="http://www.w3.org/2000/svg">
<path d="M49.13 22.3533C49.4169 21.3844 49.13 20.6714 47.7476 20.6714H43.1758C42.7484 20.6411 42.3228 20.7512 41.9641 20.9848C41.6053 21.2183 41.3329 21.5628 41.1885 21.9654C39.7715 25.3312 37.8791 28.477 35.5688 31.3071C34.5057 32.3686 34.0165 32.7102 33.4335 32.7102C33.1464 32.7102 32.7038 32.3696 32.7038 31.4008V22.3533C32.7038 21.1906 32.3727 20.6714 31.4154 20.6714H24.2269C24.0814 20.6632 23.9359 20.6838 23.7985 20.732C23.6613 20.7804 23.5348 20.8552 23.4265 20.9525C23.3182 21.0496 23.2302 21.1672 23.1677 21.2985C23.1051 21.4299 23.0694 21.5721 23.0621 21.7174C23.0621 22.8195 24.7082 23.0729 24.8783 26.1733V32.8964C24.8783 34.3689 24.6144 34.64 24.0326 34.64C22.4802 34.64 18.7077 28.952 16.472 22.4426C16.0215 21.1794 15.5788 20.6681 14.4074 20.6681H9.83442C8.53054 20.6681 8.26666 21.2799 8.26666 21.9621C8.26666 23.1744 9.81896 29.1768 15.4938 37.1122C19.2741 42.5293 24.6001 45.4665 29.4436 45.4665C32.3549 45.4665 32.7116 44.8151 32.7116 43.692C32.7116 38.5119 32.4477 38.0269 33.9072 38.0269C34.583 38.0269 35.7465 38.3675 38.4638 40.9795C41.5693 44.08 42.0817 45.4665 43.8206 45.4665H48.3924C49.6963 45.4665 50.3566 44.8151 49.9757 43.529C49.1067 40.8241 43.2299 35.2627 42.966 34.888C42.2904 34.0196 42.4847 33.6328 42.966 32.858C42.9736 32.8501 48.5559 25.0073 49.13 22.35V22.3533Z" fill="white"/>
<path d="M31 60.967C47.5502 60.967 60.9667 47.5505 60.9667 31.0004C60.9667 14.4502 47.5502 1.03369 31 1.03369C14.4499 1.03369 1.03336 14.4502 1.03336 31.0004C1.03336 47.5505 14.4499 60.967 31 60.967Z" stroke="white"/>
</svg>
